<?xml version="1.0" encoding="utf-8"?>
<!-- Generator: Adobe Illustrator 14.0.0, SVG Export Plug-In . SVG Version: 6.00 Build 43363)  -->
<!DOCTYPE svg PUBLIC "-//W3C//DTD SVG 1.1//EN" "http://www.w3.org/Graphics/SVG/1.1/DTD/svg11.dtd">
<svg version="1.1" id="Layer_1" xmlns="http://www.w3.org/2000/svg" xmlns:xlink="http://www.w3.org/1999/xlink" x="0px" y="0px"
	 width="15px" height="15px" viewBox="0 0 15 15" enable-background="new 0 0 15 15" xml:space="preserve">
<path d="M10.872,6.134c0.371,0,0.685,0.131,0.94,0.394c0.254,0.263,0.385,0.584,0.385,0.97c0,0.387-0.129,0.712-0.385,0.973
	c-0.256,0.26-0.569,0.394-0.94,0.394h-0.089l0.037,0.04c0.136,0.137,0.24,0.283,0.307,0.436c0.07,0.15,0.104,0.314,0.104,0.496
	c0,0.391-0.137,0.721-0.406,0.984c-0.271,0.271-0.598,0.4-0.98,0.4c-0.18,0-0.353-0.035-0.517-0.104
	c-0.165-0.068-0.31-0.162-0.433-0.285l-0.039-0.047l0.015,0.061v0.037c0,0.359-0.134,0.666-0.396,0.924
	c-0.264,0.258-0.587,0.387-0.968,0.387c-0.379,0-0.684-0.104-0.908-0.322c-0.227-0.219-0.382-0.546-0.468-0.984l0.013-0.039v-0.059
	l-0.038,0.047c-0.128,0.123-0.273,0.217-0.435,0.285c-0.163,0.066-0.333,0.104-0.513,0.104c-0.384,0-0.712-0.133-0.981-0.4
	C3.905,10.557,3.77,10.229,3.77,9.84c0-0.181,0.033-0.346,0.102-0.498c0.069-0.15,0.171-0.297,0.307-0.433l0.039-0.043h-0.09
	c-0.372,0-0.685-0.134-0.941-0.392C2.931,8.21,2.802,7.886,2.802,7.498c0-0.385,0.128-0.707,0.384-0.97
	c0.256-0.263,0.569-0.394,0.941-0.394h0.089L4.178,6.096C4.042,5.958,3.94,5.814,3.871,5.662C3.802,5.507,3.77,5.343,3.77,5.169
	c0-0.389,0.134-0.718,0.407-0.986C4.445,3.915,4.774,3.78,5.157,3.78c0.18,0,0.351,0.035,0.514,0.102
	C5.832,3.951,5.978,4.047,6.106,4.17l0.037,0.04L6.129,4.157V4.119c0-0.368,0.13-0.677,0.391-0.932
	c0.26-0.253,0.583-0.379,0.973-0.379c0.375,0,0.677,0.108,0.905,0.322c0.228,0.216,0.386,0.546,0.47,0.99L8.855,4.157v0.052
	l0.039-0.04C9.018,4.046,9.16,3.951,9.325,3.882C9.489,3.815,9.662,3.78,9.842,3.78c0.385,0,0.71,0.134,0.98,0.407
	c0.271,0.271,0.408,0.598,0.408,0.982c0,0.174-0.033,0.338-0.104,0.493c-0.065,0.153-0.171,0.297-0.308,0.435l-0.036,0.037H10.872z
	 M6.052,8.021c-0.004,0-0.011-0.021-0.018-0.059c-0.01-0.037-0.018-0.07-0.025-0.095C5.581,7.98,5.242,8.059,4.995,8.107
	C4.744,8.156,4.546,8.182,4.403,8.182c-0.249,0-0.444-0.061-0.593-0.185C3.665,7.874,3.589,7.706,3.589,7.498
	c0-0.2,0.075-0.364,0.221-0.49c0.149-0.126,0.341-0.189,0.579-0.189c0.14,0,0.337,0.023,0.584,0.071
	C5.226,6.937,5.57,7.018,6.01,7.134c0.008-0.01,0.014-0.032,0.023-0.064c0.003-0.035,0.01-0.067,0.014-0.097
	c-0.43-0.184-0.79-0.317-1.073-0.402C4.691,6.485,4.457,6.443,4.268,6.443c-0.341,0-0.62,0.096-0.838,0.293
	c-0.217,0.195-0.327,0.45-0.327,0.762c0,0.316,0.107,0.57,0.322,0.768c0.216,0.196,0.498,0.295,0.843,0.295
	c0.2,0,0.447-0.045,0.74-0.131C5.297,8.341,5.648,8.205,6.052,8.021z M6.854,6.109C6.58,5.384,6.309,4.864,6.045,4.551
	C5.776,4.237,5.478,4.08,5.145,4.08c-0.294,0-0.546,0.103-0.751,0.31C4.185,4.598,4.082,4.853,4.082,5.154
	c0,0.329,0.153,0.625,0.462,0.884c0.306,0.26,0.826,0.534,1.56,0.82l0.077-0.161C5.532,6.334,5.097,6.048,4.875,5.836
	c-0.221-0.21-0.331-0.425-0.331-0.643c0-0.175,0.064-0.327,0.195-0.458c0.128-0.13,0.277-0.194,0.445-0.194
	c0.208,0,0.413,0.102,0.617,0.307c0.2,0.205,0.504,0.652,0.904,1.344L6.854,6.109z M6.847,8.887
	c-0.021-0.008-0.043-0.02-0.063-0.029c-0.022-0.01-0.046-0.023-0.07-0.041C6.306,9.503,6.002,9.95,5.801,10.154
	c-0.205,0.205-0.41,0.31-0.617,0.31c-0.17,0-0.32-0.067-0.45-0.196c-0.126-0.129-0.19-0.283-0.19-0.457
	c0-0.218,0.111-0.435,0.331-0.646c0.222-0.213,0.657-0.5,1.306-0.867L6.104,8.145C5.371,8.426,4.85,8.698,4.544,8.961
	C4.235,9.223,4.083,9.52,4.083,9.848c0,0.299,0.105,0.551,0.315,0.76c0.208,0.209,0.458,0.314,0.748,0.314
	c0.333,0,0.632-0.158,0.901-0.47C6.31,10.137,6.579,9.617,6.847,8.887z M8.709,7.498c0-0.333-0.116-0.617-0.352-0.851
	C8.123,6.414,7.839,6.295,7.506,6.295c-0.341,0-0.628,0.117-0.868,0.352C6.403,6.882,6.283,7.165,6.283,7.498
	c0,0.341,0.117,0.627,0.352,0.859C6.87,8.591,7.156,8.709,7.493,8.709c0.336,0,0.623-0.117,0.858-0.354
	C8.592,8.119,8.709,7.834,8.709,7.498z M8.555,4.157C8.496,3.807,8.379,3.545,8.203,3.37C8.027,3.195,7.795,3.108,7.506,3.108
	c-0.32,0-0.579,0.106-0.779,0.32C6.532,3.641,6.432,3.92,6.432,4.267c0,0.187,0.042,0.428,0.129,0.723
	c0.087,0.293,0.224,0.649,0.407,1.068c0.026-0.008,0.05-0.017,0.075-0.025c0.021-0.01,0.053-0.017,0.092-0.026
	c-0.137-0.55-0.226-0.927-0.267-1.13c-0.041-0.202-0.06-0.363-0.06-0.484c0-0.238,0.064-0.432,0.192-0.579
	c0.127-0.146,0.291-0.22,0.492-0.22c0.205,0,0.371,0.073,0.5,0.22c0.129,0.147,0.193,0.341,0.193,0.579
	c0,0.133-0.022,0.308-0.064,0.525C8.077,5.136,7.99,5.499,7.857,6.006C7.871,6.011,7.894,6.019,7.93,6.029
	c0.036,0.01,0.071,0.02,0.099,0.028c0.187-0.422,0.32-0.778,0.4-1.071c0.086-0.292,0.125-0.543,0.125-0.752V4.157L8.555,4.157z
	 M6.968,8.943c-0.184,0.418-0.319,0.774-0.407,1.07c-0.088,0.293-0.129,0.531-0.129,0.721c0,0.346,0.097,0.625,0.294,0.836
	c0.195,0.213,0.452,0.315,0.768,0.315c0.317,0,0.574-0.106,0.773-0.321c0.2-0.215,0.301-0.498,0.301-0.842
	c0-0.187-0.041-0.412-0.125-0.688c-0.082-0.273-0.221-0.64-0.414-1.091C8.002,8.954,7.952,8.971,7.884,8.988
	C7.875,8.993,7.867,8.993,7.859,8.993c0.14,0.551,0.229,0.929,0.269,1.13c0.038,0.203,0.058,0.363,0.058,0.482
	c0,0.232-0.062,0.428-0.188,0.578c-0.126,0.147-0.289,0.225-0.489,0.225c-0.205,0-0.374-0.075-0.502-0.221
	c-0.131-0.148-0.195-0.345-0.195-0.582c0-0.143,0.021-0.32,0.069-0.547c0.042-0.224,0.131-0.58,0.264-1.065
	c-0.01,0-0.021,0-0.033-0.004C7.045,8.973,6.998,8.955,6.968,8.943z M8.895,6.858c0.734-0.286,1.252-0.56,1.56-0.819
	c0.305-0.259,0.456-0.555,0.456-0.884c0-0.298-0.104-0.551-0.309-0.761C10.391,4.185,10.145,4.08,9.854,4.08
	c-0.332,0-0.635,0.156-0.898,0.471C8.688,4.864,8.42,5.386,8.15,6.116c0.02,0.007,0.037,0.019,0.061,0.031
	c0.023,0.015,0.05,0.026,0.075,0.039C8.663,5.529,8.955,5.091,9.171,4.87c0.214-0.219,0.425-0.328,0.642-0.328
	c0.17,0,0.317,0.064,0.447,0.194c0.133,0.131,0.197,0.283,0.197,0.458c0,0.217-0.111,0.432-0.332,0.643
	c-0.223,0.211-0.657,0.5-1.305,0.866c0.02,0.035,0.035,0.064,0.047,0.088C8.875,6.814,8.885,6.836,8.895,6.858z M8.15,8.887
	c0.27,0.73,0.537,1.25,0.805,1.563c0.266,0.313,0.566,0.472,0.898,0.472c0.285,0,0.531-0.107,0.744-0.316
	c0.209-0.211,0.312-0.463,0.312-0.758c0-0.328-0.153-0.625-0.458-0.887c-0.307-0.262-0.823-0.535-1.557-0.816L8.818,8.297
	C9.466,8.664,9.9,8.951,10.123,9.164c0.221,0.211,0.332,0.427,0.332,0.645c0,0.176-0.062,0.326-0.191,0.457
	c-0.129,0.129-0.277,0.196-0.453,0.196c-0.215,0-0.428-0.112-0.64-0.333C8.955,9.906,8.662,9.467,8.286,8.811
	C8.27,8.82,8.234,8.835,8.186,8.867C8.172,8.875,8.161,8.884,8.15,8.887z M8.945,8.021c0.42,0.188,0.771,0.324,1.059,0.41
	c0.289,0.086,0.531,0.129,0.729,0.129c0.346,0,0.623-0.1,0.842-0.295c0.215-0.197,0.32-0.453,0.32-0.769
	c0-0.312-0.105-0.566-0.324-0.762c-0.217-0.197-0.496-0.293-0.838-0.293c-0.188,0-0.426,0.042-0.711,0.128
	C9.734,6.654,9.379,6.789,8.952,6.973c0.004,0.04,0.012,0.07,0.016,0.097C8.977,7.095,8.98,7.117,8.986,7.134
	c0.43-0.112,0.771-0.193,1.02-0.241c0.25-0.049,0.448-0.074,0.592-0.074c0.243,0,0.439,0.062,0.588,0.188
	c0.151,0.125,0.225,0.29,0.225,0.49c0,0.2-0.073,0.365-0.221,0.493c-0.146,0.128-0.34,0.189-0.58,0.189
	c-0.146,0-0.35-0.022-0.601-0.072c-0.251-0.051-0.593-0.128-1.02-0.24c-0.017,0.041-0.026,0.073-0.034,0.1
	C8.95,7.996,8.945,8.016,8.945,8.021z"/>
<line fill="none" stroke="#000000" x1="2.802" y1="7.498" x2="1.406" y2="7.498"/>
<line fill="none" stroke="#000000" x1="13.593" y1="7.498" x2="12.197" y2="7.498"/>
<g>
	<line fill="none" stroke="#000000" x1="7.499" y1="12.298" x2="7.499" y2="13.693"/>
	<line fill="none" stroke="#000000" x1="7.499" y1="1.507" x2="7.499" y2="2.902"/>
</g>
</svg>
