<?xml version="1.0" encoding="utf-8"?>
<!-- Generator: Adobe Illustrator 14.0.0, SVG Export Plug-In . SVG Version: 6.00 Build 43363)  -->
<!DOCTYPE svg PUBLIC "-//W3C//DTD SVG 1.1//EN" "http://www.w3.org/Graphics/SVG/1.1/DTD/svg11.dtd">
<svg version="1.1" id="Layer_1" xmlns="http://www.w3.org/2000/svg" xmlns:xlink="http://www.w3.org/1999/xlink" x="0px" y="0px"
	 width="15px" height="15px" viewBox="0 0 15 15" enable-background="new 0 0 15 15" xml:space="preserve">
<path d="M12.1,5.638c0.508,0,0.935,0.178,1.283,0.535c0.35,0.357,0.523,0.797,0.523,1.321c0,0.529-0.176,0.971-0.523,1.326
	c-0.35,0.354-0.775,0.535-1.283,0.535h-0.123l0.056,0.06c0.186,0.187,0.323,0.383,0.418,0.59c0.094,0.206,0.139,0.435,0.139,0.679
	c0,0.528-0.187,0.979-0.556,1.344c-0.368,0.365-0.812,0.547-1.338,0.547c-0.243,0-0.479-0.047-0.704-0.141
	c-0.224-0.093-0.418-0.22-0.587-0.39L9.35,11.979l0.019,0.082v0.053c0,0.488-0.179,0.908-0.541,1.26
	c-0.36,0.354-0.8,0.527-1.318,0.527c-0.517,0-0.931-0.146-1.239-0.443c-0.309-0.297-0.521-0.744-0.638-1.344l0.018-0.053v-0.082
	l-0.052,0.063c-0.175,0.17-0.372,0.297-0.594,0.39c-0.222,0.094-0.453,0.141-0.698,0.141c-0.523,0-0.972-0.182-1.339-0.547
	c-0.372-0.365-0.556-0.814-0.556-1.344c0-0.244,0.047-0.473,0.141-0.679C2.645,9.797,2.785,9.6,2.971,9.414l0.052-0.059H2.901
	c-0.505,0-0.934-0.182-1.283-0.535C1.269,8.465,1.094,8.023,1.094,7.494c0-0.523,0.175-0.964,0.523-1.321
	C1.966,5.816,2.395,5.638,2.9,5.638h0.123L2.971,5.586C2.785,5.398,2.645,5.201,2.552,4.992c-0.093-0.21-0.141-0.437-0.141-0.675
	c0-0.53,0.185-0.979,0.556-1.344c0.367-0.367,0.815-0.548,1.339-0.548c0.245,0,0.476,0.047,0.698,0.14
	c0.222,0.093,0.419,0.22,0.594,0.39L5.65,3.008l-0.018-0.07V2.886c0-0.501,0.178-0.923,0.533-1.269C6.521,1.271,6.963,1.1,7.491,1.1
	c0.512,0,0.923,0.145,1.237,0.438C9.037,1.831,9.251,2.28,9.367,2.885L9.35,2.938v0.07l0.055-0.052
	c0.169-0.169,0.363-0.297,0.587-0.39c0.225-0.093,0.461-0.14,0.704-0.14c0.523,0,0.97,0.184,1.338,0.553
	c0.369,0.37,0.556,0.815,0.556,1.339c0,0.238-0.045,0.464-0.139,0.675c-0.095,0.209-0.232,0.406-0.418,0.594l-0.056,0.052
	L12.1,5.638L12.1,5.638z M5.528,8.209c-0.005,0-0.015-0.021-0.026-0.074C5.49,8.08,5.479,8.035,5.468,7.999
	C4.885,8.15,4.422,8.262,4.085,8.328C3.742,8.395,3.475,8.43,3.276,8.43c-0.337,0-0.605-0.086-0.809-0.256
	C2.27,8.006,2.169,7.779,2.169,7.494C2.169,7.22,2.27,7,2.467,6.827C2.671,6.655,2.934,6.569,3.26,6.569
	c0.191,0,0.458,0.034,0.796,0.098C4.399,6.732,4.868,6.841,5.468,7c0.011-0.011,0.02-0.041,0.031-0.088
	C5.505,6.866,5.513,6.818,5.52,6.778c-0.588-0.25-1.076-0.431-1.464-0.546C3.669,6.114,3.35,6.057,3.093,6.057
	c-0.466,0-0.846,0.134-1.143,0.401C1.654,6.726,1.505,7.069,1.505,7.494c0,0.43,0.145,0.779,0.438,1.047s0.678,0.4,1.149,0.4
	c0.274,0,0.608-0.058,1.009-0.176C4.499,8.646,4.975,8.459,5.528,8.209z M6.619,5.602C6.247,4.614,5.877,3.903,5.517,3.476
	C5.149,3.048,4.742,2.833,4.289,2.833c-0.401,0-0.745,0.142-1.024,0.424C2.979,3.54,2.841,3.887,2.841,4.299
	c0,0.448,0.208,0.85,0.627,1.205c0.419,0.354,1.128,0.727,2.13,1.117l0.104-0.215C4.818,5.91,4.225,5.519,3.922,5.23
	C3.62,4.942,3.468,4.648,3.468,4.352c0-0.238,0.088-0.445,0.268-0.623C3.91,3.552,4.114,3.461,4.341,3.461
	c0.285,0,0.564,0.141,0.845,0.419c0.272,0.279,0.687,0.89,1.232,1.833L6.619,5.602z M6.61,9.391C6.581,9.379,6.552,9.363,6.522,9.35
	c-0.029-0.016-0.06-0.035-0.096-0.058c-0.553,0.937-0.969,1.548-1.241,1.826c-0.281,0.278-0.56,0.419-0.845,0.419
	c-0.231,0-0.436-0.09-0.61-0.268c-0.174-0.179-0.263-0.386-0.263-0.623c0-0.297,0.152-0.59,0.454-0.879
	c0.303-0.287,0.896-0.681,1.78-1.181l-0.103-0.21c-1.001,0.385-1.71,0.754-2.13,1.112c-0.419,0.356-0.627,0.762-0.627,1.21
	c0,0.408,0.142,0.75,0.427,1.035s0.625,0.431,1.021,0.431c0.453,0,0.861-0.216,1.228-0.644C5.877,11.096,6.244,10.385,6.61,9.391z
	 M9.148,7.494c0-0.454-0.158-0.838-0.479-1.158c-0.318-0.32-0.708-0.483-1.161-0.483c-0.464,0-0.857,0.163-1.184,0.483
	C6.006,6.655,5.843,7.04,5.843,7.494c0,0.464,0.16,0.857,0.479,1.175c0.32,0.315,0.711,0.478,1.169,0.478
	c0.459,0,0.853-0.164,1.173-0.483C8.99,8.344,9.148,7.953,9.148,7.494z M8.939,2.938c-0.08-0.477-0.24-0.832-0.479-1.07
	c-0.238-0.24-0.556-0.362-0.952-0.362c-0.437,0-0.787,0.147-1.061,0.437C6.18,2.233,6.043,2.618,6.043,3.089
	c0,0.256,0.059,0.582,0.178,0.983c0.119,0.401,0.305,0.89,0.556,1.461C6.811,5.52,6.844,5.509,6.878,5.497
	c0.029-0.011,0.073-0.022,0.125-0.034C6.816,4.712,6.695,4.198,6.64,3.921C6.584,3.646,6.559,3.427,6.559,3.264
	c0-0.326,0.086-0.59,0.261-0.791C6.994,2.272,7.219,2.17,7.491,2.17c0.28,0,0.507,0.103,0.682,0.303
	c0.175,0.2,0.261,0.464,0.261,0.791c0,0.181-0.026,0.419-0.086,0.716C8.289,4.276,8.17,4.771,7.988,5.463
	c0.018,0.005,0.051,0.015,0.1,0.029C8.137,5.505,8.184,5.52,8.225,5.533c0.25-0.577,0.435-1.065,0.545-1.464
	c0.115-0.398,0.17-0.741,0.17-1.027V2.938z M6.777,9.467c-0.251,0.568-0.437,1.059-0.556,1.459
	c-0.119,0.401-0.178,0.729-0.178,0.983c0,0.472,0.134,0.853,0.401,1.142c0.267,0.287,0.616,0.43,1.047,0.43
	c0.43,0,0.782-0.146,1.057-0.438c0.274-0.294,0.411-0.677,0.411-1.147c0-0.252-0.057-0.562-0.174-0.938
	c-0.108-0.375-0.299-0.872-0.561-1.488C8.184,9.484,8.117,9.509,8.023,9.531c-0.01,0.004-0.021,0.004-0.036,0.004
	c0.192,0.752,0.314,1.267,0.368,1.543c0.052,0.277,0.078,0.494,0.078,0.656c0,0.32-0.086,0.582-0.259,0.785
	c-0.173,0.205-0.393,0.309-0.667,0.309c-0.279,0-0.508-0.102-0.683-0.303c-0.181-0.201-0.267-0.465-0.267-0.791
	c0-0.191,0.029-0.438,0.093-0.745c0.057-0.306,0.179-0.79,0.36-1.454c-0.011,0-0.026,0-0.044-0.006
	C6.881,9.508,6.816,9.482,6.777,9.467z M9.404,6.621c0.998-0.39,1.707-0.763,2.123-1.117c0.414-0.355,0.625-0.757,0.625-1.205
	c0-0.408-0.144-0.75-0.422-1.036c-0.285-0.285-0.623-0.43-1.021-0.43c-0.453,0-0.86,0.215-1.226,0.642
	C9.119,3.902,8.756,4.614,8.391,5.608c0.023,0.012,0.049,0.03,0.082,0.046C8.504,5.672,8.539,5.69,8.574,5.708
	c0.512-0.897,0.912-1.495,1.205-1.795c0.289-0.3,0.582-0.452,0.871-0.452c0.233,0,0.438,0.091,0.613,0.268
	c0.178,0.178,0.27,0.385,0.27,0.623c0,0.296-0.151,0.59-0.455,0.879c-0.301,0.289-0.895,0.68-1.78,1.18
	c0.029,0.047,0.05,0.088,0.065,0.119C9.377,6.562,9.391,6.592,9.404,6.621z M8.391,9.391c0.365,0.994,0.73,1.705,1.096,2.133
	c0.365,0.427,0.771,0.643,1.226,0.643c0.392,0,0.728-0.146,1.015-0.434c0.284-0.287,0.428-0.631,0.428-1.032
	c0-0.448-0.211-0.853-0.625-1.21c-0.416-0.358-1.125-0.729-2.123-1.112l-0.108,0.21c0.886,0.5,1.479,0.895,1.78,1.18
	c0.304,0.289,0.455,0.582,0.455,0.879c0,0.238-0.088,0.445-0.262,0.623c-0.176,0.179-0.383,0.269-0.621,0.269
	c-0.289,0-0.582-0.151-0.871-0.453c-0.293-0.303-0.693-0.901-1.205-1.799C8.551,9.297,8.504,9.32,8.434,9.359
	C8.418,9.373,8.402,9.385,8.391,9.391z M9.473,8.209c0.57,0.256,1.053,0.441,1.443,0.559c0.396,0.117,0.725,0.174,0.992,0.174
	c0.471,0,0.852-0.133,1.148-0.399c0.291-0.269,0.438-0.617,0.438-1.047c0-0.424-0.147-0.768-0.445-1.036
	c-0.297-0.267-0.678-0.401-1.143-0.401c-0.257,0-0.578,0.057-0.97,0.174c-0.391,0.116-0.875,0.297-1.457,0.546
	C9.484,6.83,9.495,6.877,9.501,6.912C9.514,6.947,9.52,6.975,9.523,7c0.59-0.152,1.055-0.263,1.393-0.33
	c0.344-0.067,0.611-0.101,0.809-0.101c0.332,0,0.601,0.086,0.803,0.258C12.732,7,12.833,7.22,12.833,7.494s-0.101,0.5-0.3,0.674
	c-0.204,0.176-0.465,0.262-0.791,0.262c-0.204,0-0.479-0.035-0.82-0.102c-0.344-0.066-0.806-0.178-1.388-0.329
	C9.512,8.053,9.496,8.1,9.484,8.136C9.479,8.174,9.473,8.197,9.473,8.209z"/>
</svg>
