<?xml version="1.0" encoding="utf-8"?>
<!-- Generator: Adobe Illustrator 14.0.0, SVG Export Plug-In . SVG Version: 6.00 Build 43363)  -->
<!DOCTYPE svg PUBLIC "-//W3C//DTD SVG 1.1//EN" "http://www.w3.org/Graphics/SVG/1.1/DTD/svg11.dtd">
<svg version="1.1" id="Layer_1" xmlns="http://www.w3.org/2000/svg" xmlns:xlink="http://www.w3.org/1999/xlink" x="0px" y="0px"
	 width="15px" height="15px" viewBox="0 0 15 15" enable-background="new 0 0 15 15" xml:space="preserve">
<path d="M10.562,6.768l-0.215,0.457L8.812,6.902L7.751,7.498l1.062,0.596l1.535-0.319l0.215,0.458L9.632,8.557l0.888,0.486
	l-0.172,0.299L9.477,8.818L9.66,9.785L9.156,9.824l-0.48-1.486L7.621,7.711l0.02,1.223l1.044,1.162l-0.293,0.42L7.65,9.871
	l0.019,1.016H7.332l0.02-1.016l-0.744,0.645l-0.292-0.42L7.36,8.934l0.02-1.222L6.325,8.338l-0.48,1.486L5.339,9.785l0.185-0.967
	L4.657,9.342L4.482,9.043l0.886-0.486L4.437,8.232l0.22-0.458l1.531,0.319L7.25,7.498L6.188,6.902L4.657,7.225l-0.22-0.457
	l0.931-0.324L4.482,5.958l0.175-0.305l0.867,0.529L5.339,5.214l0.506-0.038l0.479,1.482l1.055,0.624l-0.02-1.22L6.315,4.905
	l0.292-0.42l0.744,0.644l-0.02-1.015h0.337L7.65,5.128l0.743-0.644l0.293,0.42L7.64,6.063l-0.02,1.22l1.055-0.624l0.479-1.482
	L9.66,5.214L9.477,6.182l0.871-0.529l0.172,0.305L9.633,6.444L10.562,6.768z"/>
</svg>
