<?xml version="1.0" encoding="utf-8"?>
<!-- Generator: Adobe Illustrator 14.0.0, SVG Export Plug-In . SVG Version: 6.00 Build 43363)  -->
<!DOCTYPE svg PUBLIC "-//W3C//DTD SVG 1.1//EN" "http://www.w3.org/Graphics/SVG/1.1/DTD/svg11.dtd">
<svg version="1.1" id="Layer_1" xmlns="http://www.w3.org/2000/svg" xmlns:xlink="http://www.w3.org/1999/xlink" x="0px" y="0px"
	 width="15px" height="15px" viewBox="0 0 15 15" enable-background="new 0 0 15 15" xml:space="preserve">
<g>
	<path d="M8.123,7.497C9.66,7.72,10.67,7.954,11.16,8.2c0.488,0.245,0.732,0.6,0.732,1.061c0,0.111-0.009,0.224-0.031,0.335
		c-0.021,0.11-0.057,0.231-0.103,0.36c-0.18,0.205-0.36,0.36-0.555,0.469c-0.188,0.107-0.375,0.162-0.558,0.162
		c-0.305,0-0.657-0.178-1.063-0.526C9.184,9.708,8.589,9.037,7.808,8.046c0.295,0.713,0.523,1.349,0.688,1.896
		c0.16,0.552,0.244,0.947,0.244,1.193c0,0.348-0.105,0.629-0.314,0.846c-0.211,0.218-0.518,0.359-0.918,0.433
		c-0.406-0.072-0.717-0.215-0.928-0.433c-0.213-0.217-0.318-0.498-0.318-0.846c0-0.246,0.08-0.643,0.242-1.193
		c0.164-0.549,0.395-1.184,0.689-1.896c-0.795,0.994-1.395,1.67-1.791,2.019c-0.402,0.347-0.75,0.522-1.05,0.522
		c-0.188,0-0.375-0.055-0.557-0.16c-0.188-0.104-0.371-0.26-0.555-0.471c-0.045-0.115-0.078-0.233-0.1-0.353
		C3.117,9.484,3.107,9.372,3.107,9.261C3.107,8.8,3.352,8.445,3.84,8.2c0.49-0.246,1.502-0.48,3.037-0.703
		C5.342,7.278,4.33,7.046,3.84,6.8C3.352,6.556,3.107,6.202,3.107,5.743c0-0.117,0.01-0.232,0.033-0.35
		c0.021-0.115,0.055-0.232,0.1-0.348C3.433,4.83,3.621,4.672,3.802,4.568c0.184-0.1,0.368-0.153,0.55-0.153
		c0.301,0,0.648,0.176,1.051,0.523c0.396,0.348,0.996,1.018,1.791,2.01C6.902,6.247,6.674,5.62,6.51,5.069
		c-0.166-0.55-0.248-0.953-0.248-1.203c0-0.348,0.105-0.631,0.314-0.85c0.209-0.219,0.516-0.361,0.918-0.43
		c0.41,0.072,0.721,0.215,0.932,0.43C8.635,3.231,8.74,3.515,8.74,3.866c0,0.25-0.084,0.652-0.248,1.203
		C8.326,5.62,8.1,6.247,7.809,6.948c0.794-0.992,1.393-1.662,1.789-2.01C10,4.59,10.348,4.415,10.648,4.415
		c0.179,0,0.361,0.053,0.543,0.158c0.188,0.105,0.375,0.262,0.568,0.473c0.045,0.125,0.08,0.246,0.102,0.361
		c0.023,0.115,0.031,0.229,0.031,0.336c0,0.459-0.244,0.812-0.731,1.057C10.67,7.046,9.66,7.278,8.123,7.497z M7.086,7.269
		l-3.57-2.076C3.48,5.3,3.453,5.397,3.436,5.483c-0.018,0.088-0.027,0.17-0.027,0.246c0,0.365,0.217,0.65,0.654,0.857
		C4.496,6.792,5.504,7.019,7.086,7.269z M7.086,7.745L3.516,9.8c0.139,0.166,0.277,0.289,0.414,0.367
		c0.139,0.078,0.279,0.115,0.422,0.115c0.256,0,0.59-0.189,1.006-0.572C5.773,9.329,6.348,8.675,7.086,7.745z M7.494,7.022V2.89
		C7.186,2.942,6.953,3.054,6.797,3.22C6.641,3.388,6.562,3.608,6.562,3.88c0,0.232,0.086,0.633,0.25,1.203
		C6.982,5.651,7.209,6.298,7.494,7.022z M7.494,12.111c0.312-0.057,0.547-0.168,0.707-0.334c0.156-0.166,0.236-0.385,0.236-0.655
		c0-0.229-0.084-0.629-0.254-1.203c-0.17-0.573-0.4-1.224-0.689-1.939V12.111z M11.486,5.192c-0.139-0.156-0.281-0.273-0.42-0.354
		c-0.144-0.082-0.281-0.121-0.418-0.121c-0.265,0-0.613,0.203-1.051,0.609C9.164,5.733,8.604,6.38,7.916,7.269L11.486,5.192z
		 M11.486,9.8c0.041-0.11,0.068-0.204,0.08-0.284c0.02-0.08,0.026-0.16,0.026-0.242c0-0.375-0.235-0.668-0.7-0.877
		c-0.47-0.211-1.459-0.429-2.978-0.65L11.486,9.8z"/>
</g>
</svg>
